<svg xmlns="http://www.w3.org/2000/svg" width="1200" height="630" viewBox="0 0 1200 630" role="img" aria-labelledby="title desc">
  <title id="title">GenesisCode documentation</title>
  <desc id="desc">A language agents can reason about. AI-first, pure kernel, explicit effects.</desc>
  <rect width="1200" height="630" fill="#11251f"/>
  <path d="M770 0h430v630H430z" fill="#0c6d5c" opacity=".74"/>
  <path d="M980 0h220v630H680z" fill="#30b48c" opacity=".8"/>
  <circle cx="1030" cy="145" r="86" fill="#ffbd36"/>
  <rect x="72" y="64" width="58" height="58" rx="8" fill="#ffbd36"/>
  <path d="M105 80c-16 0-24 10-24 23 0 15 9 25 25 25 9 0 16-3 21-8v-20h-22v11h9v4c-2 1-5 2-8 2-8 0-12-5-12-14 0-8 4-13 12-13 5 0 8 2 11 5l8-9c-5-4-11-6-20-6z" fill="#11251f"/>
  <text x="151" y="108" fill="#fffdf7" font-family="Avenir Next, Segoe UI, sans-serif" font-size="42" font-weight="600">GenesisCode</text>
  <text x="74" y="210" fill="#ffbd36" font-family="Avenir Next, Segoe UI, sans-serif" font-size="22" font-weight="700" letter-spacing="5">AI-FIRST · PURE KERNEL · EXPLICIT EFFECTS</text>
  <text x="72" y="320" fill="#fffdf7" font-family="Charter, Georgia, serif" font-size="82" font-weight="700">A language agents</text>
  <text x="72" y="410" fill="#fffdf7" font-family="Charter, Georgia, serif" font-size="82" font-weight="700">can reason about.</text>
  <text x="76" y="492" fill="#dcebe5" font-family="Avenir Next, Segoe UI, sans-serif" font-size="30">Learn · build · verify · replay</text>
  <text x="76" y="564" fill="#fffdf7" opacity=".72" font-family="IBM Plex Mono, Menlo, monospace" font-size="21">corbensorenson.github.io/genesisCode</text>
  <text x="984" y="600" fill="#fffdf7" opacity=".13" font-family="Charter, Georgia, serif" font-size="190" font-weight="700">Gλ</text>
</svg>
